<svg xmlns="http://www.w3.org/2000/svg" width="274.334" height="109" viewBox="0 0 274.334 109">
  <g id="logo_GYM" data-name="logo GYM" transform="translate(-586 -439)">
    <path id="Icon_map-gym" data-name="Icon map-gym" d="M22.066,56.3A1.281,1.281,0,0,1,22,58.1L19.24,60.68a1.271,1.271,0,0,1-1.795-.065L1.357,43.276a1.281,1.281,0,0,1,.065-1.8L4.188,38.9a1.269,1.269,0,0,1,1.795.065ZM42.6,23.67a1.281,1.281,0,0,1-.065,1.8L25.143,41.714a1.271,1.271,0,0,1-1.795-.065L19.2,37.17a1.281,1.281,0,0,1,.065-1.8L36.646,19.127a1.268,1.268,0,0,1,1.793.065L42.6,23.67Zm-14.613,27.1a1.281,1.281,0,0,1-.065,1.8l-2.766,2.582a1.269,1.269,0,0,1-1.795-.065L7.276,37.745a1.281,1.281,0,0,1,.064-1.8L10.1,33.364a1.271,1.271,0,0,1,1.795.065ZM54.773,24.292a1.281,1.281,0,0,1-.066,1.8l-2.765,2.582a1.272,1.272,0,0,1-1.8-.064L34.063,11.277a1.28,1.28,0,0,1,.064-1.8L36.9,6.887a1.268,1.268,0,0,1,1.793.065Zm5.907-5.52a1.283,1.283,0,0,1-.065,1.8l-2.76,2.581a1.268,1.268,0,0,1-1.793-.064L39.981,5.749a1.283,1.283,0,0,1,.064-1.8l2.763-2.586a1.266,1.266,0,0,1,1.792.064Z" transform="translate(774.093 498.777) rotate(-47)" fill="#7159c1"/>
    <text id="G_Y_M_" data-name="G Y M " transform="translate(586 527)" fill="#605b70" font-size="82" font-family="Gadugi"><tspan x="0" y="0" letter-spacing="-0.085em">G Y M</tspan><tspan y="0" font-size="70" font-family="SegoeUI-Bold, Segoe UI" font-weight="700"> </tspan></text>
  </g>
</svg>
